<svg width="29" height="26" viewBox="0 0 29 26" fill="none" xmlns="http://www.w3.org/2000/svg">
<path d="M6.18625 1.70834H1.56125M6.55625 1.70834L9.88625 13.795C10.1642 14.7481 10.7415 15.5865 11.5327 16.1862C12.324 16.7859 13.2872 17.1151 14.28 17.125H27.7542V1.70834H6.55625ZM16.9779 22.5208C16.9779 23.798 15.9426 24.8333 14.6654 24.8333C13.3883 24.8333 12.3529 23.798 12.3529 22.5208C12.3529 21.2437 13.3883 20.2083 14.6654 20.2083C15.9426 20.2083 16.9779 21.2437 16.9779 22.5208ZM27.7696 22.5208C27.7696 23.798 26.7342 24.8333 25.4571 24.8333C24.1799 24.8333 23.1446 23.798 23.1446 22.5208C23.1446 21.2437 24.1799 20.2083 25.4571 20.2083C26.7342 20.2083 27.7696 21.2437 27.7696 22.5208Z" stroke="#E10029" stroke-width="2" stroke-linecap="round" stroke-linejoin="round"/>
</svg>
