<svg width="25" height="27" viewBox="0 0 25 27" fill="none" xmlns="http://www.w3.org/2000/svg">
<path d="M11.8988 13.3304C15.3045 13.3304 18.0654 10.5695 18.0654 7.16374C18.0654 3.75798 15.3045 0.99707 11.8988 0.99707C8.493 0.99707 5.73209 3.75798 5.73209 7.16374C5.73209 10.5695 8.493 13.3304 11.8988 13.3304Z" stroke="#E10029" stroke-width="2" stroke-linecap="round" stroke-linejoin="round"/>
<path d="M18.9134 25.9567C19.7228 25.9393 20.5136 25.7098 21.2065 25.2911C21.8994 24.8724 22.4703 24.279 22.8621 23.5705C23.2538 22.8619 23.4527 22.0629 23.4388 21.2534C23.4249 20.4439 23.1987 19.6522 22.7829 18.9575C21.6856 17.2254 20.1682 15.7988 18.3718 14.8103C16.5753 13.8218 14.5582 13.3035 12.5078 13.3035C10.4573 13.3035 8.44013 13.8218 6.6437 14.8103C4.84727 15.7988 3.32988 17.2254 2.23253 18.9575C1.81673 19.6522 1.59057 20.4439 1.57668 21.2534C1.5628 22.0629 1.76166 22.8619 2.1534 23.5705C2.54514 24.279 3.11602 24.8724 3.80897 25.2911C4.50191 25.7098 5.29263 25.9393 6.10208 25.9567H18.9134Z" stroke="#E10029" stroke-width="2" stroke-linecap="round" stroke-linejoin="round"/>
</svg>
